# xmcd
#
# Track frame offsets:
# 150
# 12504
# 26455
# 42675
# 58111
# 76065
# 94130
# 109650
# 129132
# 142613
# 156936
# 172164
# 187600
#
# Disc length: 2667 seconds
#
#
# Revision: 0
# Processed by: cddbd v1.5PL3 Copyright (c) Steve Scherf et al.
# Submitted via: FreeRIP 2.53 
#
DISCID=9c0a690d
DTITLE=Keith, Toby - Pull My Chain
DYEAR=1900
DGENRE=
TTITLE0=I'm Just Talking About Tonight
TTITLE1=I Wanna Talk About Me
TTITLE2=I Can't Take You Anywhere
TTITLE3=You Leave Me Weak
TTITLE4=Trying To Matter
TTITLE5=Pull My Chain
TTITLE6=The Sha La La Song
TTITLE7=Pick 'Em Up and Lay 'Em Down
TTITLE8=Forever Hasn't Got Here Yet
TTITLE9=Yesterday's Rain
TTITLE10=My List
TTITLE11=You Leave Me Weak
TTITLE12=Gimme Eight Seconds
EXTD=
EXTT0=
EXTT1=
EXTT2=
EXTT3=
EXTT4=
EXTT5=
EXTT6=
EXTT7=
EXTT8=
EXTT9=
EXTT10=
EXTT11=
EXTT12=
PLAYORDER=
